Coordinates
version=1
nRows=8
nColumns=46
inDegrees=yes

Units are S.I. units (second, meters, Newtons, ...)
If the header above contains a line with 'inDegrees', this indicates whether rotational values are in degrees (yes) or radians (no).

endheader 
time	pelvis_tilt	pelvis_list	pelvis_rotation	pelvis_tx	pelvis_ty	pelvis_tz	hip_flexion_l	hip_adduction_l	hip_rotation_l	hip_flexion_r	hip_adduction_r	hip_rotation_r	knee_angle_l	knee_angle_r	ankle_angle_l	ankle_angle_r	subtalar_angle_l	subtalar_angle_r	mtp_angle_l	mtp_angle_r	lumbar_extension	lumbar_bending	lumbar_rotation	arm_flex_l	arm_add_l	arm_rot_l	arm_flex_r	arm_add_r	arm_rot_r	elbow_flex_l	elbow_flex_r	pro_sup_l	pro_sup_r	hip_flexion_l/activation	hip_flexion_r/activation	hip_adduction_l/activation	hip_adduction_r/activation	hip_rotation_l/activation	hip_rotation_r/activation	knee_angle_l/activation	knee_angle_r/activation	ankle_angle_l/activation	ankle_angle_r/activation	subtalar_angle_l/activation	subtalar_angle_r/activation	
          0.30096226	         -4.50481478	         -0.57895931	          0.18545199	          0.29192507	          0.93208590	         -0.25375477	         25.17443807	         -2.55955459	          0.46810286	          8.14889426	          5.50164510	          0.11848143	         61.15951408	          8.20218522	         -3.96689988	          7.61933860	        -10.30907079	         -6.37214477	         -3.27955774	         -3.88105714	          2.83058836	          1.99085953	         -1.51954354	         -1.35512893	        -12.15266782	          4.84983774	         -0.73133811	        -13.91219905	          4.30848623	         19.89122655	         18.33787338	         78.46862300	         84.54627800	          8.51099415	          2.10832767	          8.73327487	        -16.42778869	         -3.99908812	          1.53487203	         -3.67639396	         -4.82500821	          2.42968343	        -13.72424922	         -0.45288120	          8.32784829	
          0.32111321	         -4.45028472	         -0.26042338	         -0.73709032	          0.31185607	          0.93376258	         -0.25113411	         27.61654646	         -2.43194636	         -0.74500556	          6.23723628	          5.27258710	          0.70791735	         57.67462487	          7.24054037	         -1.75379363	          8.20667149	        -11.31591943	         -4.83844826	         -2.26394497	         -3.92495022	          2.43272888	          1.80604734	         -0.18694101	         -2.52119706	        -11.85073231	          4.37206594	          0.84105101	        -14.70465527	          5.06815192	         18.55726470	         20.91313577	         78.70095844	         84.30687631	          6.89443419	          4.23145332	          6.15202857	        -21.39750836	         -2.96863119	          1.45654982	         -2.31163061	         -4.02833454	          2.64450247	        -14.96654790	         -0.49916337	          8.09700591	
          0.34126415	         -4.42613951	         -0.19554252	         -1.73876190	          0.33166841	          0.93405191	         -0.24856323	         29.68017392	         -2.61029238	         -2.08590884	          4.48238262	          5.26442936	          1.36389375	         53.31917598	          6.53134388	          0.19397923	          9.01314822	        -11.76127939	         -3.41815368	         -1.54630046	         -4.12326347	          2.03800855	          1.92512116	          1.10481087	         -3.86779694	        -11.47553165	          3.55013593	          2.53691804	        -15.61007113	          5.88528201	         17.41254983	         23.62990685	         79.01525338	         83.93163706	         -0.65798951	         11.18259284	          2.66885493	        -29.23906569	         -1.26562394	          1.21637731	          3.43038654	         -6.48976388	          1.45087796	        -15.83972491	         -0.27317154	          7.56020050	
          0.36141509	         -4.43726171	         -0.37094501	         -2.78171259	          0.35152497	          0.93294580	         -0.24615183	         31.36668962	         -3.06137721	         -3.45721987	          2.83966860	          5.46344108	          2.09703128	         48.34173083	          6.02865842	          1.84830520	         10.03670808	        -11.55046105	         -2.18663237	         -1.15062270	         -4.42201035	          1.66274302	          2.35185712	          2.30980491	         -5.42750410	        -11.00401250	          2.37175833	          4.34931558	        -16.58054100	          6.77639131	         16.43863729	         26.41155009	         79.40992292	         83.45049996	         -4.56824642	         14.84825962	         -0.01594094	        -36.25838922	         -0.03963110	          0.56329066	          6.98377544	         -7.45612983	          0.92667419	        -17.43116907	         -0.21440382	          7.11727615	
          0.38156604	         -4.49312220	         -0.73724571	         -3.82766708	          0.37163474	          0.93052890	         -0.24400985	         32.71484741	         -3.70029902	         -4.76982936	          1.26473608	          5.81743133	          2.90613222	         42.95779769	          5.67533824	          3.24562930	         11.22029173	        -10.65728223	         -1.18710523	         -0.90587391	         -4.80731336	          1.33962848	          3.04488525	          3.39579374	         -7.19311279	        -10.42058807	          0.86909014	          6.20289656	        -17.56066853	          7.70921209	         15.59404836	         29.18181921	         79.86201697	         82.91569912	         -4.61096796	         15.77525366	         -1.11977562	        -40.63581717	          0.45113815	         -0.36483765	          7.81945010	         -6.80283395	          0.99319617	        -20.20855243	         -0.21192551	          7.10948381	
          0.40171698	         -4.60864853	         -1.22040659	         -4.83902535	          0.39222113	          0.92700130	         -0.24220987	         33.77907836	         -4.40985278	         -5.95131346	         -0.26929721	          6.24821219	          3.77511452	         37.37195256	          5.41465438	          4.43947396	         12.47148567	         -9.13414990	         -0.42202718	         -0.72222496	         -5.29746394	          1.11310476	          3.91963544	          4.35511156	         -9.12597189	         -9.72380718	         -0.88637133	          7.97188339	        -18.49492710	          8.60676835	         14.82607449	         31.87319306	         80.32881192	         82.38770551	         -5.53426644	         18.70456411	         -0.34424341	        -41.45031426	          0.46333785	         -1.20694624	          8.82292353	         -6.68818650	          1.00934441	        -24.09830103	         -0.15822733	          7.74228139	
          0.42186792	         -4.80129564	         -1.73451974	         -5.78247402	          0.41348980	          0.92266322	         -0.24075958	         34.61984344	         -5.06514342	         -6.94857142	         -1.76520535	          6.66673391	          4.67431957	         31.79638403	          5.20523835	          5.46090444	         13.67871098	         -7.11577468	          0.14472051	         -0.58653539	         -5.93084120	          1.03254694	          4.85838705	          5.19980483	        -11.16281839	         -8.93214597	         -2.79687093	          9.51058439	        -19.33218646	          9.36839063	         14.08720362	         34.42639726	         80.75826241	         81.91755337	         -7.93975866	         23.69466657	          1.59555589	        -39.32187534	          0.30415104	         -1.63579073	         10.20275149	         -6.79220658	          0.93390223	        -29.22674934	         -0.07619593	          9.00874763	
          0.44201887	         -5.08531038	         -2.19396290	         -6.63223876	          0.43560338	          0.91786347	         -0.23959653	         35.29587001	         -5.55631036	         -7.72712874	         -3.20401151	          6.98751681	          5.56509822	         26.46196076	          5.03401656	          6.29684299	         14.72523752	         -4.81426692	          0.57464547	         -0.48975718	         -6.76530895	          1.14366396	          5.72716143	          5.95018652	        -13.22247898	         -8.08673496	         -4.75252192	         10.68968192	        -20.02690376	          9.89938881	         13.34867529	         36.78323333	         81.10415857	         81.53457138	        -11.67747505	         29.56853607	          3.92903855	        -35.25254480	          0.17303164	         -1.38293527	         11.85130380	         -6.22184678	          0.75544119	        -35.65686885	          0.00936196	         10.82558111	
